<svg width="64" height="64" viewBox="0 0 64 64" fill="none" xmlns="http://www.w3.org/2000/svg" role="img" aria-label="Lego brick with a question mark">
  <g transform="translate(-2.5,-3.5)">
    <!-- right face -->
    <polygon points="48,28 57,17 57,43 48,54" fill="#b06a18" stroke="#8a5212" stroke-width="0.5"/>
    <!-- top face -->
    <polygon points="12,28 48,28 57,17 21,17" fill="#f0a24a" stroke="#8a5212" stroke-width="0.5"/>
    <!-- front face -->
    <polygon points="12,28 48,28 48,54 12,54" fill="#d8862a" stroke="#8a5212" stroke-width="0.5"/>
    <!-- studs (back row, then front row) -->
    <ellipse cx="28.6" cy="22.1" rx="4.6" ry="2.4" fill="#c2761f"/><ellipse cx="28.6" cy="20.1" rx="4.6" ry="2.4" fill="#f4b266"/>
    <ellipse cx="44.4" cy="22.1" rx="4.6" ry="2.4" fill="#c2761f"/><ellipse cx="44.4" cy="20.1" rx="4.6" ry="2.4" fill="#f4b266"/>
    <ellipse cx="25.0" cy="26.5" rx="4.6" ry="2.4" fill="#c2761f"/><ellipse cx="25.0" cy="24.5" rx="4.6" ry="2.4" fill="#f4b266"/>
    <ellipse cx="40.8" cy="26.5" rx="4.6" ry="2.4" fill="#c2761f"/><ellipse cx="40.8" cy="24.5" rx="4.6" ry="2.4" fill="#f4b266"/>
    <!-- question mark on the front face -->
    <text x="30" y="48" font-family="'Arial Black', Arial, Helvetica, sans-serif" font-size="23" font-weight="900" fill="#ffffff" text-anchor="middle">?</text>
  </g>
</svg>
